# xmcd
#
# Track frame offsets:
#	150
#	14354
#	29002
#	42061
#	56931
#	70941
#	87164
#	103000
#	117176
#	130244
#	147488
#
# Disc length: 2202 seconds
#
# Revision: 1
# Processed by: cddbd v1.4PL0 Copyright (c) Steve Scherf et al.
# Submitted via: audiograbber 1.80
#
DISCID=9d08980b
DTITLE=Água Cristalina - No Balanço do Água
DYEAR=1900
DGENRE=
TTITLE0=Água Cristalina
TTITLE1=Serei tus, sim
TTITLE2=No balanço do água
TTITLE3=Quero ser teu namorado
TTITLE4=Pensamento voa livre
TTITLE5=Amor proibido
TTITLE6=Nunca mais vou te perder
TTITLE7=Vaneirão do Água
TTITLE8=Assim não dá
TTITLE9=Passo do brega
TTITLE10=Instrumental
EXTD=
EXTT0=
EXTT1=
EXTT2=
EXTT3=
EXTT4=
EXTT5=
EXTT6=
EXTT7=
EXTT8=
EXTT9=
EXTT10=
PLAYORDER=
